<?xml version="1.0" encoding="UTF-8" standalone="no"?>
<!DOCTYPE svg PUBLIC "-//W3C//DTD SVG 1.1//EN" "http://www.w3.org/Graphics/SVG/1.1/DTD/svg11.dtd">
<!-- Created with Vectornator (http://vectornator.io/) -->
<svg height="100%" stroke-miterlimit="10" style="fill-rule:nonzero;clip-rule:evenodd;stroke-linecap:round;stroke-linejoin:round;" version="1.1" viewBox="0 0 480 31" width="100%" xml:space="preserve" xmlns="http://www.w3.org/2000/svg" xmlns:vectornator="http://vectornator.io" xmlns:xlink="http://www.w3.org/1999/xlink">
<defs/>
<g id="Layer-1" vectornator:layerName="Layer 1">
<g opacity="1" vectornator:layerName="Group 1">
<g fill="#bab6aa" opacity="1" stroke="#776963" stroke-linecap="butt" stroke-linejoin="round" stroke-opacity="0.05" stroke-width="1" vectornator:layerName="Text 1">
<path d="M2.90219 8.25371C3.18132 8.20517 3.4817 8.15965 3.80331 8.11718C4.12493 8.0747 4.44654 8.04132 4.76816 8.01705C5.08977 7.99278 5.40229 7.97457 5.7057 7.96244C6.00911 7.9503 6.28824 7.94423 6.54311 7.94423C7.13779 7.94423 7.72337 7.99885 8.29985 8.10807C8.87633 8.2173 9.39213 8.40542 9.84724 8.67242C10.3024 8.93942 10.6665 9.30654 10.9395 9.7738C11.2126 10.241 11.3491 10.8266 11.3491 11.5305C11.3491 12.5743 11.1064 13.4238 10.6209 14.0792C10.1355 14.7346 9.48619 15.1897 8.67305 15.4445L9.56507 16.0089L12.4778 20.8695L9.60148 20.8695L6.70695 15.8814L5.39622 15.6448L5.39622 20.8695L2.90219 20.8695L2.90219 8.25371ZM6.72515 10.1652C6.47029 10.1652 6.21846 10.1713 5.96966 10.1834C5.72087 10.1955 5.52972 10.2198 5.39622 10.2562L5.39622 13.9518L6.45208 13.9518C7.14386 13.9518 7.69607 13.794 8.1087 13.4784C8.52134 13.1629 8.72766 12.641 8.72766 11.9128C8.72766 11.3667 8.55775 10.9389 8.21793 10.6294C7.87811 10.3199 7.38052 10.1652 6.72515 10.1652Z" fill="#006961"/>
<path d="M13.8614 8.12628L21.4163 8.12628L21.4163 10.3472L16.3554 10.3472L16.3554 13.3146L20.9612 13.3146L20.9612 15.5356L16.3554 15.5356L16.3554 18.6485L21.5073 18.6485L21.5073 20.8695L13.8614 20.8695L13.8614 8.12628Z" fill="#006961"/>
<path d="M28.862 17.447C28.862 17.0587 28.7193 16.7431 28.4341 16.5004C28.1489 16.2577 27.7909 16.0362 27.3601 15.8359C26.9292 15.6357 26.462 15.4294 25.9583 15.217C25.4547 15.0046 24.9874 14.7437 24.5566 14.4342C24.1257 14.1247 23.7677 13.7394 23.4825 13.2782C23.1973 12.817 23.0547 12.2284 23.0547 11.5123C23.0547 10.8934 23.1578 10.3563 23.3642 9.90123C23.5705 9.44611 23.8648 9.06685 24.2471 8.76344C24.6294 8.46003 25.0815 8.23551 25.6033 8.08987C26.1252 7.94423 26.7077 7.87141 27.351 7.87141C28.0913 7.87141 28.7891 7.93513 29.4445 8.06256C30.0999 8.19 30.6399 8.37508 31.0647 8.6178L30.2819 10.7113C30.0149 10.5414 29.6144 10.3867 29.0804 10.2471C28.5464 10.1075 27.9699 10.0378 27.351 10.0378C26.7684 10.0378 26.3224 10.1531 26.0129 10.3836C25.7035 10.6142 25.5487 10.9237 25.5487 11.3121C25.5487 11.6762 25.6913 11.9796 25.9765 12.2223C26.2617 12.465 26.6198 12.6896 27.0506 12.8959C27.4814 13.1022 27.9487 13.3146 28.4523 13.533C28.956 13.7515 29.4233 14.0155 29.8541 14.3249C30.2849 14.6344 30.643 15.0167 30.9282 15.4718C31.2134 15.927 31.356 16.4943 31.356 17.174C31.356 17.8536 31.2437 18.4392 31.0192 18.9307C30.7947 19.4222 30.4791 19.8318 30.0726 20.1595C29.666 20.4872 29.1745 20.7299 28.598 20.8877C28.0215 21.0455 27.3874 21.1244 26.6956 21.1244C25.7854 21.1244 24.9844 21.0394 24.2926 20.8695C23.6008 20.6996 23.0911 20.5297 22.7634 20.3598L23.5644 18.2298C23.6979 18.3027 23.8709 18.3815 24.0832 18.4665C24.2956 18.5514 24.5353 18.6303 24.8023 18.7032C25.0693 18.776 25.3515 18.8367 25.6488 18.8852C25.9462 18.9337 26.2526 18.958 26.5682 18.958C27.3085 18.958 27.8759 18.8336 28.2703 18.5848C28.6647 18.336 28.862 17.9568 28.862 17.447Z" fill="#006961"/>
<path d="M33.6316 11.7672L35.0879 11.7672L35.0879 20.8695L33.6316 20.8695L33.6316 11.7672ZM33.3221 9.0001C33.3221 8.72096 33.4161 8.48127 33.6043 8.28102C33.7924 8.08077 34.0321 7.98064 34.3233 7.98064C34.6146 7.98064 34.8634 8.08077 35.0697 8.28102C35.276 8.48127 35.3792 8.72096 35.3792 9.0001C35.3792 9.27924 35.276 9.50983 35.0697 9.69187C34.8634 9.87392 34.6146 9.96494 34.3233 9.96494C34.0321 9.96494 33.7924 9.87392 33.6043 9.69187C33.4161 9.50983 33.3221 9.27924 33.3221 9.0001Z"/>
<path d="M39.8211 18.6303C39.8211 19.0551 39.8939 19.3585 40.0396 19.5406C40.1852 19.7226 40.3915 19.8136 40.6585 19.8136C40.8163 19.8136 40.9862 19.8015 41.1683 19.7772C41.3503 19.753 41.5566 19.6983 41.7872 19.6134L41.9511 20.7603C41.7569 20.8574 41.4868 20.9363 41.141 20.9969C40.7951 21.0576 40.4947 21.088 40.2398 21.088C39.6937 21.088 39.2446 20.9332 38.8927 20.6237C38.5407 20.3143 38.3648 19.7894 38.3648 19.049L38.3648 8.12628L39.8211 8.12628L39.8211 18.6303Z"/>
<path d="M43.8261 11.7672L45.2825 11.7672L45.2825 20.8695L43.8261 20.8695L43.8261 11.7672ZM43.5167 9.0001C43.5167 8.72096 43.6107 8.48127 43.7988 8.28102C43.9869 8.08077 44.2266 7.98064 44.5179 7.98064C44.8092 7.98064 45.058 8.08077 45.2643 8.28102C45.4706 8.48127 45.5738 8.72096 45.5738 9.0001C45.5738 9.27924 45.4706 9.50983 45.2643 9.69187C45.058 9.87392 44.8092 9.96494 44.5179 9.96494C44.2266 9.96494 43.9869 9.87392 43.7988 9.69187C43.6107 9.50983 43.5167 9.27924 43.5167 9.0001Z"/>
<path d="M55.0402 20.1413C54.6761 20.4326 54.2179 20.6632 53.6657 20.8331C53.1135 21.003 52.5279 21.088 51.909 21.088C51.2172 21.088 50.6165 20.9757 50.1067 20.7512C49.597 20.5266 49.1783 20.205 48.8506 19.7863C48.5229 19.3676 48.2802 18.867 48.1224 18.2844C47.9646 17.7019 47.8858 17.0465 47.8858 16.3184C47.8858 14.7649 48.2317 13.5816 48.9234 12.7685C49.6152 11.9553 50.6043 11.5487 51.8908 11.5487C52.3034 11.5487 52.7161 11.5943 53.1287 11.6853C53.5413 11.7763 53.9115 11.9492 54.2392 12.2041C54.5669 12.459 54.8339 12.82 55.0402 13.2873C55.2465 13.7545 55.3497 14.3705 55.3497 15.1351C55.3497 15.5356 55.3132 15.9785 55.2404 16.464L49.3967 16.464C49.3967 16.998 49.4514 17.4713 49.5606 17.8839C49.6698 18.2966 49.8397 18.6455 50.0703 18.9307C50.3009 19.2159 50.6013 19.4344 50.9714 19.5861C51.3416 19.7378 51.7937 19.8136 52.3277 19.8136C52.7403 19.8136 53.153 19.7408 53.5656 19.5952C53.9782 19.4495 54.2877 19.2796 54.494 19.0855L55.0402 20.1413ZM51.909 12.8231C51.1929 12.8231 50.6195 13.0112 50.1886 13.3874C49.7578 13.7636 49.4999 14.4069 49.4149 15.3171L53.9297 15.3171C53.9297 14.3947 53.7537 13.7485 53.4018 13.3783C53.0498 13.0081 52.5522 12.8231 51.909 12.8231Z"/>
<path d="M63.4871 20.8695L63.4871 15.6812C63.4871 14.7346 63.3506 14.0215 63.0775 13.5421C62.8044 13.0628 62.3038 12.8231 61.5756 12.8231C60.9324 12.8231 60.4014 12.996 59.9827 13.3419C59.564 13.6878 59.2697 14.1217 59.0998 14.6435L59.0998 20.8695L57.6434 20.8695L57.6434 11.7672L58.6629 11.7672L58.936 12.8777L59.0088 12.8777C59.3 12.4893 59.6914 12.1707 60.183 11.9219C60.6745 11.6731 61.2601 11.5487 61.9397 11.5487C62.4373 11.5487 62.8742 11.6064 63.2504 11.7217C63.6267 11.837 63.9392 12.0403 64.188 12.3315C64.4368 12.6228 64.6249 13.0142 64.7523 13.5057C64.8798 13.9973 64.9435 14.6193 64.9435 15.3717L64.9435 20.8695L63.4871 20.8695Z"/>
<path d="M66.3998 11.7672L67.8198 11.7672L67.8198 9.96494L69.2762 9.54624L69.2762 11.7672L71.752 11.7672L71.752 13.0415L69.2762 13.0415L69.2762 18.0842C69.2762 18.7153 69.3551 19.1613 69.5128 19.4222C69.6706 19.6832 69.9376 19.8136 70.3138 19.8136C70.6294 19.8136 70.8964 19.7803 71.1148 19.7135C71.3333 19.6468 71.576 19.5588 71.843 19.4495L72.1707 20.56C71.843 20.7178 71.485 20.8452 71.0966 20.9423C70.7083 21.0394 70.2896 21.088 69.8405 21.088C69.1002 21.088 68.5783 20.8786 68.2749 20.4599C67.9715 20.0412 67.8198 19.3403 67.8198 18.3573L67.8198 13.0415L66.3998 13.0415L66.3998 11.7672Z"/>
<path d="M86.9528 20.3416C86.5645 20.6207 86.0699 20.821 85.4692 20.9423C84.8684 21.0637 84.2525 21.1244 83.6214 21.1244C82.8568 21.1244 82.1317 21.006 81.446 20.7694C80.7602 20.5327 80.1565 20.1504 79.6346 19.6225C79.1127 19.0946 78.6971 18.4088 78.3876 17.5654C78.0781 16.7219 77.9234 15.6994 77.9234 14.4979C77.9234 13.2478 78.0963 12.2011 78.4422 11.3576C78.7881 10.5141 79.2371 9.83448 79.7893 9.31868C80.3415 8.80288 80.9575 8.43272 81.6371 8.2082C82.3167 7.98368 82.9964 7.87141 83.676 7.87141C84.4042 7.87141 85.0201 7.91996 85.5238 8.01705C86.0274 8.11414 86.4431 8.22944 86.7708 8.36294L86.2793 10.4747C86.0001 10.3412 85.6694 10.2441 85.2871 10.1834C84.9048 10.1227 84.4406 10.0924 83.8945 10.0924C82.8871 10.0924 82.077 10.4504 81.4642 11.1664C80.8513 11.8825 80.5448 12.993 80.5448 14.4979C80.5448 15.1533 80.6176 15.751 80.7633 16.291C80.9089 16.8311 81.1304 17.2923 81.4277 17.6746C81.7251 18.0569 82.0952 18.3542 82.5382 18.5666C82.9812 18.779 83.494 18.8852 84.0765 18.8852C84.6227 18.8852 85.0838 18.8306 85.4601 18.7214C85.8363 18.6121 86.164 18.4726 86.4431 18.3027L86.9528 20.3416Z" fill="#006961"/>
<path d="M88.3 16.3184C88.3 14.777 88.6428 13.5968 89.3285 12.7776C90.0143 11.9583 91.0003 11.5487 92.2868 11.5487C92.9664 11.5487 93.5581 11.661 94.0617 11.8855C94.5654 12.1101 94.9811 12.4317 95.3088 12.8504C95.6364 13.2691 95.8792 13.7727 96.0369 14.3614C96.1947 14.95 96.2736 15.6023 96.2736 16.3184C96.2736 17.8597 95.9307 19.0399 95.245 19.8591C94.5593 20.6784 93.5733 21.088 92.2868 21.088C91.6072 21.088 91.0155 20.9757 90.5118 20.7512C90.0082 20.5266 89.5925 20.205 89.2648 19.7863C88.9371 19.3676 88.6944 18.864 88.5366 18.2753C88.3789 17.6867 88.3 17.0344 88.3 16.3184ZM89.811 16.3184C89.811 16.7795 89.8565 17.2225 89.9475 17.6473C90.0385 18.0721 90.1811 18.4422 90.3753 18.7578C90.5695 19.0733 90.8244 19.3282 91.1399 19.5224C91.4554 19.7165 91.8377 19.8136 92.2868 19.8136C93.9373 19.8258 94.7626 18.6607 94.7626 16.3184C94.7626 15.845 94.7171 15.396 94.6261 14.9712C94.5351 14.5464 94.3925 14.1763 94.1983 13.8607C94.0041 13.5452 93.7492 13.2934 93.4337 13.1052C93.1181 12.9171 92.7358 12.8231 92.2868 12.8231C90.6362 12.8109 89.811 13.976 89.811 16.3184Z"/>
<path d="M104.411 20.8695L104.411 15.6812C104.411 14.7346 104.275 14.0215 104.001 13.5421C103.728 13.0628 103.228 12.8231 102.5 12.8231C101.856 12.8231 101.325 12.996 100.907 13.3419C100.488 13.6878 100.194 14.1217 100.024 14.6435L100.024 20.8695L98.5674 20.8695L98.5674 11.7672L99.5868 11.7672L99.8599 12.8777L99.9327 12.8777C100.224 12.4893 100.615 12.1707 101.107 11.9219C101.598 11.6731 102.184 11.5487 102.864 11.5487C103.361 11.5487 103.798 11.6064 104.174 11.7217C104.551 11.837 104.863 12.0403 105.112 12.3315C105.361 12.6228 105.549 13.0142 105.676 13.5057C105.804 13.9973 105.867 14.6193 105.867 15.3717L105.867 20.8695L104.411 20.8695Z"/>
<path d="M112.53 18.3937C112.53 18.0296 112.421 17.7444 112.203 17.5381C111.984 17.3317 111.714 17.1588 111.393 17.0192C111.071 16.8797 110.719 16.7462 110.337 16.6187C109.954 16.4913 109.602 16.3275 109.281 16.1272C108.959 15.927 108.689 15.6691 108.471 15.3535C108.252 15.038 108.143 14.6132 108.143 14.0792C108.143 13.2054 108.392 12.5652 108.889 12.1586C109.387 11.752 110.079 11.5487 110.965 11.5487C111.62 11.5487 112.169 11.6064 112.612 11.7217C113.055 11.837 113.441 11.9735 113.768 12.1313L113.422 13.3328C113.143 13.1993 112.806 13.081 112.412 12.9778C112.018 12.8746 111.596 12.8231 111.147 12.8231C110.613 12.8231 110.221 12.9141 109.973 13.0961C109.724 13.2782 109.599 13.5937 109.599 14.0428C109.599 14.3583 109.709 14.6041 109.927 14.7801C110.146 14.956 110.416 15.1138 110.737 15.2534C111.059 15.393 111.411 15.5295 111.793 15.663C112.175 15.7965 112.527 15.9725 112.849 16.1909C113.171 16.4094 113.441 16.6855 113.659 17.0192C113.877 17.353 113.987 17.7929 113.987 18.3391C113.987 18.7274 113.923 19.0915 113.796 19.4313C113.668 19.7712 113.471 20.0624 113.204 20.3052C112.937 20.5479 112.606 20.739 112.212 20.8786C111.817 21.0182 111.353 21.088 110.819 21.088C110.127 21.088 109.539 21.0212 109.053 20.8877C108.568 20.7542 108.161 20.5964 107.834 20.4144L108.27 19.1765C108.55 19.3342 108.914 19.4799 109.363 19.6134C109.812 19.7469 110.267 19.8136 110.728 19.8136C111.25 19.8136 111.681 19.7105 112.021 19.5042C112.36 19.2978 112.53 18.9277 112.53 18.3937Z"/>
<path d="M122.834 20.1413C122.47 20.4326 122.012 20.6632 121.46 20.8331C120.907 21.003 120.322 21.088 119.703 21.088C119.011 21.088 118.41 20.9757 117.901 20.7512C117.391 20.5266 116.972 20.205 116.645 19.7863C116.317 19.3676 116.074 18.867 115.916 18.2844C115.759 17.7019 115.68 17.0465 115.68 16.3184C115.68 14.7649 116.026 13.5816 116.717 12.7685C117.409 11.9553 118.398 11.5487 119.685 11.5487C120.097 11.5487 120.51 11.5943 120.923 11.6853C121.335 11.7763 121.705 11.9492 122.033 12.2041C122.361 12.459 122.628 12.82 122.834 13.2873C123.04 13.7545 123.144 14.3705 123.144 15.1351C123.144 15.5356 123.107 15.9785 123.034 16.464L117.191 16.464C117.191 16.998 117.245 17.4713 117.355 17.8839C117.464 18.2966 117.634 18.6455 117.864 18.9307C118.095 19.2159 118.395 19.4344 118.765 19.5861C119.136 19.7378 119.588 19.8136 120.122 19.8136C120.534 19.8136 120.947 19.7408 121.36 19.5952C121.772 19.4495 122.082 19.2796 122.288 19.0855L122.834 20.1413ZM119.703 12.8231C118.987 12.8231 118.413 13.0112 117.983 13.3874C117.552 13.7636 117.294 14.4069 117.209 15.3171L121.724 15.3171C121.724 14.3947 121.548 13.7485 121.196 13.3783C120.844 13.0081 120.346 12.8231 119.703 12.8231Z"/>
<path d="M131.281 20.8695L131.281 15.6812C131.281 14.7346 131.145 14.0215 130.871 13.5421C130.598 13.0628 130.098 12.8231 129.37 12.8231C128.726 12.8231 128.195 12.996 127.777 13.3419C127.358 13.6878 127.064 14.1217 126.894 14.6435L126.894 20.8695L125.437 20.8695L125.437 11.7672L126.457 11.7672L126.73 12.8777L126.803 12.8777C127.094 12.4893 127.485 12.1707 127.977 11.9219C128.468 11.6731 129.054 11.5487 129.734 11.5487C130.231 11.5487 130.668 11.6064 131.044 11.7217C131.421 11.837 131.733 12.0403 131.982 12.3315C132.231 12.6228 132.419 13.0142 132.546 13.5057C132.674 13.9973 132.737 14.6193 132.737 15.3717L132.737 20.8695L131.281 20.8695Z"/>
<path d="M139.4 18.3937C139.4 18.0296 139.291 17.7444 139.073 17.5381C138.854 17.3317 138.584 17.1588 138.263 17.0192C137.941 16.8797 137.589 16.7462 137.207 16.6187C136.824 16.4913 136.472 16.3275 136.151 16.1272C135.829 15.927 135.559 15.6691 135.341 15.3535C135.122 15.038 135.013 14.6132 135.013 14.0792C135.013 13.2054 135.262 12.5652 135.759 12.1586C136.257 11.752 136.949 11.5487 137.835 11.5487C138.49 11.5487 139.039 11.6064 139.482 11.7217C139.925 11.837 140.311 11.9735 140.638 12.1313L140.292 13.3328C140.013 13.1993 139.676 13.081 139.282 12.9778C138.888 12.8746 138.466 12.8231 138.017 12.8231C137.483 12.8231 137.091 12.9141 136.843 13.0961C136.594 13.2782 136.469 13.5937 136.469 14.0428C136.469 14.3583 136.579 14.6041 136.797 14.7801C137.016 14.956 137.286 15.1138 137.607 15.2534C137.929 15.393 138.281 15.5295 138.663 15.663C139.045 15.7965 139.397 15.9725 139.719 16.1909C140.041 16.4094 140.311 16.6855 140.529 17.0192C140.747 17.353 140.857 17.7929 140.857 18.3391C140.857 18.7274 140.793 19.0915 140.666 19.4313C140.538 19.7712 140.341 20.0624 140.074 20.3052C139.807 20.5479 139.476 20.739 139.082 20.8786C138.687 21.0182 138.223 21.088 137.689 21.088C136.997 21.088 136.409 21.0212 135.923 20.8877C135.438 20.7542 135.031 20.5964 134.704 20.4144L135.14 19.1765C135.42 19.3342 135.784 19.4799 136.233 19.6134C136.682 19.7469 137.137 19.8136 137.598 19.8136C138.12 19.8136 138.551 19.7105 138.891 19.5042C139.23 19.2978 139.4 18.9277 139.4 18.3937Z"/>
<path d="M144.37 11.7672L144.37 16.9555C144.37 17.4288 144.397 17.8445 144.452 18.2025C144.507 18.5606 144.601 18.8579 144.734 19.0946C144.868 19.3312 145.05 19.5102 145.28 19.6316C145.511 19.753 145.802 19.8136 146.154 19.8136C146.482 19.8136 146.773 19.7621 147.028 19.6589C147.283 19.5557 147.51 19.4131 147.711 19.2311C147.911 19.049 148.087 18.8397 148.239 18.603C148.39 18.3664 148.515 18.1145 148.612 17.8475L148.612 11.7672L150.068 11.7672L150.068 18.2844C150.068 18.7214 150.083 19.1734 150.114 19.6407C150.144 20.1079 150.196 20.5175 150.268 20.8695L149.267 20.8695L148.903 19.4313L148.812 19.4313C148.533 19.9047 148.157 20.2991 147.683 20.6146C147.21 20.9302 146.609 21.088 145.881 21.088C145.396 21.088 144.968 21.0303 144.598 20.915C144.228 20.7997 143.918 20.5964 143.669 20.3052C143.42 20.0139 143.232 19.6225 143.105 19.131C142.978 18.6394 142.914 18.0174 142.914 17.265L142.914 11.7672L144.37 11.7672Z"/>
<path d="M156.877 18.3937C156.877 18.0296 156.767 17.7444 156.549 17.5381C156.331 17.3317 156.061 17.1588 155.739 17.0192C155.417 16.8797 155.065 16.7462 154.683 16.6187C154.301 16.4913 153.949 16.3275 153.627 16.1272C153.306 15.927 153.036 15.6691 152.817 15.3535C152.599 15.038 152.489 14.6132 152.489 14.0792C152.489 13.2054 152.738 12.5652 153.236 12.1586C153.733 11.752 154.425 11.5487 155.311 11.5487C155.966 11.5487 156.516 11.6064 156.959 11.7217C157.402 11.837 157.787 11.9735 158.115 12.1313L157.769 13.3328C157.49 13.1993 157.153 13.081 156.758 12.9778C156.364 12.8746 155.942 12.8231 155.493 12.8231C154.959 12.8231 154.568 12.9141 154.319 13.0961C154.07 13.2782 153.946 13.5937 153.946 14.0428C153.946 14.3583 154.055 14.6041 154.273 14.7801C154.492 14.956 154.762 15.1138 155.084 15.2534C155.405 15.393 155.757 15.5295 156.139 15.663C156.522 15.7965 156.874 15.9725 157.195 16.1909C157.517 16.4094 157.787 16.6855 158.005 17.0192C158.224 17.353 158.333 17.7929 158.333 18.3391C158.333 18.7274 158.269 19.0915 158.142 19.4313C158.015 19.7712 157.817 20.0624 157.55 20.3052C157.283 20.5479 156.953 20.739 156.558 20.8786C156.164 21.0182 155.699 21.088 155.165 21.088C154.474 21.088 153.885 21.0212 153.4 20.8877C152.914 20.7542 152.508 20.5964 152.18 20.4144L152.617 19.1765C152.896 19.3342 153.26 19.4799 153.709 19.6134C154.158 19.7469 154.613 19.8136 155.074 19.8136C155.596 19.8136 156.027 19.7105 156.367 19.5042C156.707 19.2978 156.877 18.9277 156.877 18.3937Z"/>
<path d="M165.579 18.1752C165.579 17.6048 165.697 17.0587 165.934 16.5368C166.17 16.0149 166.477 15.5295 166.853 15.0804C167.229 14.6314 167.654 14.2279 168.127 13.8698C168.6 13.5118 169.074 13.2114 169.547 12.9687C169.462 12.7502 169.389 12.553 169.329 12.3771C169.268 12.2011 169.216 12.0251 169.174 11.8491C169.131 11.6731 169.101 11.4911 169.083 11.303C169.065 11.1149 169.056 10.8994 169.056 10.6567C169.056 10.329 169.116 10.0014 169.238 9.67367C169.359 9.34599 169.547 9.05168 169.802 8.79075C170.057 8.52981 170.375 8.31743 170.758 8.15359C171.14 7.98974 171.598 7.90782 172.132 7.90782C172.557 7.90782 172.9 7.96547 173.161 8.08077C173.422 8.19606 173.625 8.33867 173.771 8.50858C173.916 8.67849 174.013 8.8666 174.062 9.07292C174.11 9.27924 174.135 9.47342 174.135 9.65547C174.135 10.3472 173.871 10.9874 173.343 11.5761C172.815 12.1647 172.096 12.7078 171.186 13.2054C171.307 13.5573 171.45 13.9184 171.613 14.2885C171.777 14.6587 171.956 15.0258 172.15 15.3899C172.345 15.754 172.551 16.1151 172.769 16.4731C172.988 16.8311 173.206 17.1618 173.425 17.4652C173.582 17.3196 173.749 17.1345 173.925 16.91C174.101 16.6855 174.274 16.4488 174.444 16.2C174.614 15.9512 174.778 15.6933 174.936 15.4263C175.093 15.1593 175.239 14.9045 175.373 14.6617L176.337 15.1897C176.228 15.396 176.077 15.6417 175.882 15.927C175.688 16.2122 175.482 16.5034 175.263 16.8008C175.045 17.0981 174.826 17.3833 174.608 17.6564C174.39 17.9295 174.195 18.157 174.025 18.3391C174.414 18.8245 174.745 19.1947 175.018 19.4495C175.291 19.7044 175.579 19.9289 175.882 20.1231L174.826 21.1426C174.547 20.9848 174.25 20.7542 173.934 20.4508C173.619 20.1474 173.309 19.7954 173.006 19.3949C172.751 19.6134 172.478 19.8227 172.187 20.023C171.896 20.2232 171.58 20.4023 171.24 20.56C170.9 20.7178 170.533 20.8452 170.139 20.9423C169.744 21.0394 169.323 21.088 168.874 21.088C168.364 21.088 167.906 21.0151 167.499 20.8695C167.093 20.7239 166.747 20.5206 166.461 20.2596C166.176 19.9987 165.958 19.6923 165.806 19.3403C165.654 18.9884 165.579 18.6 165.579 18.1752ZM172.369 18.4847C172.114 18.1327 171.868 17.7504 171.632 17.3378C171.395 16.9252 171.173 16.5125 170.967 16.0999C170.761 15.6873 170.576 15.2898 170.412 14.9075C170.248 14.5252 170.111 14.1884 170.002 13.8971C169.565 14.1763 169.165 14.4736 168.801 14.7892C168.437 15.1047 168.124 15.4294 167.863 15.7631C167.602 16.0969 167.399 16.4397 167.253 16.7917C167.108 17.1436 167.035 17.5017 167.035 17.8657C167.035 18.5211 167.235 19.0126 167.636 19.3403C168.036 19.668 168.6 19.8318 169.329 19.8318C169.62 19.8318 169.911 19.7924 170.202 19.7135C170.494 19.6346 170.773 19.5315 171.04 19.404C171.307 19.2766 171.553 19.134 171.777 18.9762C172.002 18.8184 172.199 18.6546 172.369 18.4847ZM170.421 10.6203C170.421 10.8024 170.427 10.9662 170.439 11.1118C170.451 11.2575 170.473 11.394 170.503 11.5214C170.533 11.6489 170.57 11.7793 170.612 11.9128C170.655 12.0463 170.712 12.2041 170.785 12.3862C171.477 11.9735 171.996 11.5791 172.342 11.2029C172.687 10.8266 172.86 10.4079 172.86 9.94674C172.86 9.70401 172.791 9.49769 172.651 9.32778C172.511 9.15787 172.272 9.07292 171.932 9.07292C171.653 9.07292 171.419 9.1154 171.231 9.20035C171.043 9.28531 170.888 9.40364 170.767 9.55534C170.645 9.70705 170.557 9.87696 170.503 10.0651C170.448 10.2532 170.421 10.4383 170.421 10.6203Z"/>
<path d="M192.612 20.3416C192.248 20.6207 191.787 20.8149 191.229 20.9241C190.671 21.0333 190.076 21.088 189.445 21.088C188.68 21.088 187.964 20.9575 187.297 20.6966C186.629 20.4356 186.047 20.0382 185.549 19.5042C185.051 18.9702 184.657 18.2875 184.366 17.4561C184.074 16.6248 183.929 15.6387 183.929 14.4979C183.929 13.3085 184.09 12.2982 184.411 11.4668C184.733 10.6355 185.158 9.95584 185.686 9.42791C186.213 8.89997 186.805 8.51464 187.46 8.27192C188.116 8.02919 188.783 7.90782 189.463 7.90782C190.191 7.90782 190.786 7.94727 191.247 8.02615C191.708 8.10504 192.103 8.21123 192.43 8.34473L192.066 9.67367C191.484 9.39453 190.652 9.25496 189.572 9.25496C189.075 9.25496 188.583 9.34599 188.098 9.52803C187.612 9.71008 187.178 10.0074 186.796 10.4201C186.414 10.8327 186.107 11.3728 185.877 12.0403C185.646 12.7078 185.531 13.527 185.531 14.4979C185.531 15.3717 185.64 16.1363 185.858 16.7917C186.077 17.447 186.377 17.9932 186.76 18.4301C187.142 18.867 187.591 19.1947 188.107 19.4131C188.623 19.6316 189.184 19.7408 189.791 19.7408C190.337 19.7408 190.813 19.6862 191.22 19.577C191.626 19.4677 191.969 19.3282 192.248 19.1583L192.612 20.3416Z"/>
<path d="M193.559 16.3184C193.559 14.777 193.902 13.5968 194.588 12.7776C195.273 11.9583 196.259 11.5487 197.546 11.5487C198.225 11.5487 198.817 11.661 199.321 11.8855C199.824 12.1101 200.24 12.4317 200.568 12.8504C200.895 13.2691 201.138 13.7727 201.296 14.3614C201.454 14.95 201.533 15.6023 201.533 16.3184C201.533 17.8597 201.19 19.0399 200.504 19.8591C199.818 20.6784 198.832 21.088 197.546 21.088C196.866 21.088 196.275 20.9757 195.771 20.7512C195.267 20.5266 194.852 20.205 194.524 19.7863C194.196 19.3676 193.953 18.864 193.796 18.2753C193.638 17.6867 193.559 17.0344 193.559 16.3184ZM195.07 16.3184C195.07 16.7795 195.115 17.2225 195.207 17.6473C195.298 18.0721 195.44 18.4422 195.634 18.7578C195.829 19.0733 196.083 19.3282 196.399 19.5224C196.714 19.7165 197.097 19.8136 197.546 19.8136C199.196 19.8258 200.022 18.6607 200.022 16.3184C200.022 15.845 199.976 15.396 199.885 14.9712C199.794 14.5464 199.651 14.1763 199.457 13.8607C199.263 13.5452 199.008 13.2934 198.693 13.1052C198.377 12.9171 197.995 12.8231 197.546 12.8231C195.895 12.8109 195.07 13.976 195.07 16.3184Z"/>
<path d="M203.317 16.3184C203.317 14.777 203.66 13.5968 204.345 12.7776C205.031 11.9583 206.017 11.5487 207.303 11.5487C207.983 11.5487 208.575 11.661 209.078 11.8855C209.582 12.1101 209.998 12.4317 210.325 12.8504C210.653 13.2691 210.896 13.7727 211.054 14.3614C211.211 14.95 211.29 15.6023 211.29 16.3184C211.29 17.8597 210.947 19.0399 210.262 19.8591C209.576 20.6784 208.59 21.088 207.303 21.088C206.624 21.088 206.032 20.9757 205.529 20.7512C205.025 20.5266 204.609 20.205 204.282 19.7863C203.954 19.3676 203.711 18.864 203.553 18.2753C203.396 17.6867 203.317 17.0344 203.317 16.3184ZM204.828 16.3184C204.828 16.7795 204.873 17.2225 204.964 17.6473C205.055 18.0721 205.198 18.4422 205.392 18.7578C205.586 19.0733 205.841 19.3282 206.157 19.5224C206.472 19.7165 206.854 19.8136 207.303 19.8136C208.954 19.8258 209.779 18.6607 209.779 16.3184C209.779 15.845 209.734 15.396 209.643 14.9712C209.552 14.5464 209.409 14.1763 209.215 13.8607C209.021 13.5452 208.766 13.2934 208.45 13.1052C208.135 12.9171 207.753 12.8231 207.303 12.8231C205.653 12.8109 204.828 13.976 204.828 16.3184Z"/>
<path d="M213.584 11.7672L214.585 11.7672L214.858 12.8595L214.931 12.8595C215.21 12.4347 215.571 12.1101 216.014 11.8855C216.457 11.661 216.964 11.5487 217.534 11.5487C218.748 11.5487 219.652 11.9068 220.247 12.6228C220.842 13.3389 221.139 14.51 221.139 16.1363C221.139 16.9009 221.039 17.5896 220.839 18.2025C220.638 18.8154 220.356 19.3342 219.992 19.759C219.628 20.1838 219.188 20.5115 218.672 20.7421C218.156 20.9727 217.583 21.088 216.952 21.088C216.503 21.088 216.148 21.0607 215.887 21.006C215.626 20.9514 215.344 20.8574 215.04 20.7239L215.04 24.5104L213.584 24.5104L213.584 11.7672ZM217.261 12.8231C216.642 12.8231 216.154 12.9839 215.796 13.3055C215.438 13.6271 215.186 14.1156 215.04 14.771L215.04 19.2857C215.259 19.4556 215.508 19.5861 215.787 19.6771C216.066 19.7681 216.436 19.8136 216.897 19.8136C217.735 19.8136 218.399 19.5011 218.891 18.8761C219.382 18.2511 219.628 17.3317 219.628 16.1181C219.628 15.6205 219.586 15.1684 219.501 14.7619C219.416 14.3553 219.279 14.0094 219.091 13.7242C218.903 13.439 218.66 13.2175 218.363 13.0597C218.065 12.902 217.698 12.8231 217.261 12.8231Z"/>
<path d="M230.077 20.1413C229.713 20.4326 229.255 20.6632 228.703 20.8331C228.151 21.003 227.565 21.088 226.946 21.088C226.254 21.088 225.654 20.9757 225.144 20.7512C224.634 20.5266 224.216 20.205 223.888 19.7863C223.56 19.3676 223.317 18.867 223.16 18.2844C223.002 17.7019 222.923 17.0465 222.923 16.3184C222.923 14.7649 223.269 13.5816 223.961 12.7685C224.652 11.9553 225.642 11.5487 226.928 11.5487C227.341 11.5487 227.753 11.5943 228.166 11.6853C228.579 11.7763 228.949 11.9492 229.276 12.2041C229.604 12.459 229.871 12.82 230.077 13.2873C230.284 13.7545 230.387 14.3705 230.387 15.1351C230.387 15.5356 230.351 15.9785 230.278 16.464L224.434 16.464C224.434 16.998 224.489 17.4713 224.598 17.8839C224.707 18.2966 224.877 18.6455 225.108 18.9307C225.338 19.2159 225.639 19.4344 226.009 19.5861C226.379 19.7378 226.831 19.8136 227.365 19.8136C227.778 19.8136 228.19 19.7408 228.603 19.5952C229.016 19.4495 229.325 19.2796 229.531 19.0855L230.077 20.1413ZM226.946 12.8231C226.23 12.8231 225.657 13.0112 225.226 13.3874C224.795 13.7636 224.537 14.4069 224.452 15.3171L228.967 15.3171C228.967 14.3947 228.791 13.7485 228.439 13.3783C228.087 13.0081 227.589 12.8231 226.946 12.8231Z"/>
<path d="M236.977 13.169C236.613 13.0476 236.267 12.9869 235.939 12.9869C235.417 12.9869 235.005 13.1295 234.701 13.4147C234.398 13.6999 234.21 14.061 234.137 14.4979L234.137 20.8695L232.681 20.8695L232.681 11.7672L233.7 11.7672L233.973 12.8777L234.046 12.8777C234.277 12.465 234.553 12.1465 234.874 11.9219C235.196 11.6974 235.606 11.5852 236.103 11.5852C236.455 11.5852 236.85 11.6458 237.286 11.7672L236.977 13.169Z"/>
<path d="M238.725 12.4408C239.186 12.1616 239.723 11.9553 240.336 11.8218C240.949 11.6883 241.589 11.6216 242.256 11.6216C242.887 11.6216 243.394 11.7065 243.776 11.8764C244.159 12.0463 244.45 12.2678 244.65 12.5409C244.85 12.814 244.984 13.1143 245.051 13.442C245.117 13.7697 245.151 14.0974 245.151 14.4251C245.151 15.1533 245.133 15.8632 245.096 16.555C245.06 17.2468 245.042 17.9022 245.042 18.5211C245.042 18.9702 245.06 19.3949 245.096 19.7954C245.133 20.1959 245.199 20.5661 245.296 20.9059L244.222 20.9059L243.84 19.6316L243.749 19.6316C243.64 19.8015 243.503 19.9684 243.339 20.1322C243.176 20.2961 242.978 20.4417 242.748 20.5691C242.517 20.6966 242.25 20.8028 241.947 20.8877C241.643 20.9727 241.298 21.0151 240.909 21.0151C240.521 21.0151 240.16 20.9545 239.826 20.8331C239.492 20.7117 239.204 20.5388 238.961 20.3143C238.719 20.0897 238.527 19.8197 238.388 19.5042C238.248 19.1886 238.178 18.8306 238.178 18.4301C238.178 17.8961 238.288 17.4501 238.506 17.092C238.725 16.734 239.031 16.4488 239.426 16.2364C239.82 16.024 240.293 15.8723 240.845 15.7813C241.398 15.6903 242.008 15.6448 242.675 15.6448C242.845 15.6448 243.012 15.6448 243.176 15.6448C243.339 15.6448 243.506 15.6569 243.676 15.6812C243.713 15.3171 243.731 14.9894 243.731 14.6981C243.731 14.0306 243.597 13.5634 243.33 13.2964C243.063 13.0294 242.578 12.8959 241.874 12.8959C241.668 12.8959 241.446 12.9111 241.21 12.9414C240.973 12.9717 240.73 13.0142 240.481 13.0688C240.233 13.1234 239.996 13.1902 239.771 13.2691C239.547 13.348 239.35 13.436 239.18 13.533L238.725 12.4408ZM241.31 19.7408C241.649 19.7408 241.953 19.6953 242.22 19.6043C242.487 19.5133 242.718 19.398 242.912 19.2584C243.106 19.1188 243.267 18.9641 243.394 18.7942C243.522 18.6243 243.616 18.4604 243.676 18.3027L243.676 16.7917C243.506 16.7795 243.333 16.7704 243.157 16.7644C242.981 16.7583 242.809 16.7553 242.639 16.7553C242.262 16.7553 241.895 16.7765 241.537 16.819C241.179 16.8615 240.864 16.9403 240.591 17.0556C240.318 17.1709 240.099 17.3287 239.935 17.529C239.771 17.7292 239.689 17.981 239.689 18.2844C239.689 18.7092 239.841 19.0581 240.145 19.3312C240.448 19.6043 240.836 19.7408 241.31 19.7408Z"/>
<path d="M246.698 11.7672L248.118 11.7672L248.118 9.96494L249.575 9.54624L249.575 11.7672L252.05 11.7672L252.05 13.0415L249.575 13.0415L249.575 18.0842C249.575 18.7153 249.653 19.1613 249.811 19.4222C249.969 19.6832 250.236 19.8136 250.612 19.8136C250.928 19.8136 251.195 19.7803 251.413 19.7135C251.632 19.6468 251.874 19.5588 252.141 19.4495L252.469 20.56C252.141 20.7178 251.783 20.8452 251.395 20.9423C251.007 21.0394 250.588 21.088 250.139 21.088C249.399 21.088 248.877 20.8786 248.573 20.4599C248.27 20.0412 248.118 19.3403 248.118 18.3573L248.118 13.0415L246.698 13.0415L246.698 11.7672Z"/>
<path d="M254.381 11.7672L255.837 11.7672L255.837 20.8695L254.381 20.8695L254.381 11.7672ZM254.071 9.0001C254.071 8.72096 254.165 8.48127 254.353 8.28102C254.541 8.08077 254.781 7.98064 255.072 7.98064C255.364 7.98064 255.612 8.08077 255.819 8.28102C256.025 8.48127 256.128 8.72096 256.128 9.0001C256.128 9.27924 256.025 9.50983 255.819 9.69187C255.612 9.87392 255.364 9.96494 255.072 9.96494C254.781 9.96494 254.541 9.87392 254.353 9.69187C254.165 9.50983 254.071 9.27924 254.071 9.0001Z"/>
<path d="M258.44 16.3184C258.44 14.777 258.783 13.5968 259.469 12.7776C260.154 11.9583 261.141 11.5487 262.427 11.5487C263.107 11.5487 263.698 11.661 264.202 11.8855C264.706 12.1101 265.121 12.4317 265.449 12.8504C265.777 13.2691 266.019 13.7727 266.177 14.3614C266.335 14.95 266.414 15.6023 266.414 16.3184C266.414 17.8597 266.071 19.0399 265.385 19.8591C264.7 20.6784 263.713 21.088 262.427 21.088C261.747 21.088 261.156 20.9757 260.652 20.7512C260.148 20.5266 259.733 20.205 259.405 19.7863C259.077 19.3676 258.835 18.864 258.677 18.2753C258.519 17.6867 258.44 17.0344 258.44 16.3184ZM259.951 16.3184C259.951 16.7795 259.997 17.2225 260.088 17.6473C260.179 18.0721 260.321 18.4422 260.516 18.7578C260.71 19.0733 260.965 19.3282 261.28 19.5224C261.596 19.7165 261.978 19.8136 262.427 19.8136C264.078 19.8258 264.903 18.6607 264.903 16.3184C264.903 15.845 264.857 15.396 264.766 14.9712C264.675 14.5464 264.533 14.1763 264.339 13.8607C264.144 13.5452 263.889 13.2934 263.574 13.1052C263.258 12.9171 262.876 12.8231 262.427 12.8231C260.776 12.8109 259.951 13.976 259.951 16.3184Z"/>
<path d="M274.551 20.8695L274.551 15.6812C274.551 14.7346 274.415 14.0215 274.142 13.5421C273.869 13.0628 273.368 12.8231 272.64 12.8231C271.997 12.8231 271.466 12.996 271.047 13.3419C270.628 13.6878 270.334 14.1217 270.164 14.6435L270.164 20.8695L268.708 20.8695L268.708 11.7672L269.727 11.7672L270 12.8777L270.073 12.8777C270.364 12.4893 270.756 12.1707 271.247 11.9219C271.739 11.6731 272.324 11.5487 273.004 11.5487C273.501 11.5487 273.938 11.6064 274.315 11.7217C274.691 11.837 275.003 12.0403 275.252 12.3315C275.501 12.6228 275.689 13.0142 275.817 13.5057C275.944 13.9973 276.008 14.6193 276.008 15.3717L276.008 20.8695L274.551 20.8695Z"/>
<path d="M283.016 16.3184C283.016 14.777 283.359 13.5968 284.045 12.7776C284.731 11.9583 285.717 11.5487 287.003 11.5487C287.683 11.5487 288.275 11.661 288.778 11.8855C289.282 12.1101 289.698 12.4317 290.025 12.8504C290.353 13.2691 290.596 13.7727 290.753 14.3614C290.911 14.95 290.99 15.6023 290.99 16.3184C290.99 17.8597 290.647 19.0399 289.961 19.8591C289.276 20.6784 288.29 21.088 287.003 21.088C286.324 21.088 285.732 20.9757 285.228 20.7512C284.725 20.5266 284.309 20.205 283.981 19.7863C283.654 19.3676 283.411 18.864 283.253 18.2753C283.095 17.6867 283.016 17.0344 283.016 16.3184ZM284.527 16.3184C284.527 16.7795 284.573 17.2225 284.664 17.6473C284.755 18.0721 284.898 18.4422 285.092 18.7578C285.286 19.0733 285.541 19.3282 285.856 19.5224C286.172 19.7165 286.554 19.8136 287.003 19.8136C288.654 19.8258 289.479 18.6607 289.479 16.3184C289.479 15.845 289.434 15.396 289.343 14.9712C289.252 14.5464 289.109 14.1763 288.915 13.8607C288.721 13.5452 288.466 13.2934 288.15 13.1052C287.835 12.9171 287.452 12.8231 287.003 12.8231C285.353 12.8109 284.527 13.976 284.527 16.3184Z"/>
<path d="M295.687 17.1011L296.197 18.8306L296.215 18.8306L296.67 17.0647L298.709 11.7672L300.274 11.7672L296.397 21.0698L295.778 21.0698L291.827 11.7672L293.502 11.7672L295.687 17.1011Z"/>
<path d="M308.284 20.1413C307.92 20.4326 307.462 20.6632 306.91 20.8331C306.358 21.003 305.772 21.088 305.153 21.088C304.461 21.088 303.861 20.9757 303.351 20.7512C302.841 20.5266 302.423 20.205 302.095 19.7863C301.767 19.3676 301.524 18.867 301.367 18.2844C301.209 17.7019 301.13 17.0465 301.13 16.3184C301.13 14.7649 301.476 13.5816 302.168 12.7685C302.859 11.9553 303.849 11.5487 305.135 11.5487C305.548 11.5487 305.96 11.5943 306.373 11.6853C306.786 11.7763 307.156 11.9492 307.483 12.2041C307.811 12.459 308.078 12.82 308.284 13.2873C308.491 13.7545 308.594 14.3705 308.594 15.1351C308.594 15.5356 308.557 15.9785 308.485 16.464L302.641 16.464C302.641 16.998 302.696 17.4713 302.805 17.8839C302.914 18.2966 303.084 18.6455 303.315 18.9307C303.545 19.2159 303.846 19.4344 304.216 19.5861C304.586 19.7378 305.038 19.8136 305.572 19.8136C305.985 19.8136 306.397 19.7408 306.81 19.5952C307.222 19.4495 307.532 19.2796 307.738 19.0855L308.284 20.1413ZM305.153 12.8231C304.437 12.8231 303.864 13.0112 303.433 13.3874C303.002 13.7636 302.744 14.4069 302.659 15.3171L307.174 15.3171C307.174 14.3947 306.998 13.7485 306.646 13.3783C306.294 13.0081 305.796 12.8231 305.153 12.8231Z"/>
<path d="M315.184 13.169C314.82 13.0476 314.474 12.9869 314.146 12.9869C313.624 12.9869 313.212 13.1295 312.908 13.4147C312.605 13.6999 312.417 14.061 312.344 14.4979L312.344 20.8695L310.888 20.8695L310.888 11.7672L311.907 11.7672L312.18 12.8777L312.253 12.8777C312.484 12.465 312.76 12.1465 313.081 11.9219C313.403 11.6974 313.813 11.5852 314.31 11.5852C314.662 11.5852 315.057 11.6458 315.493 11.7672L315.184 13.169Z"/>
<path d="M328.546 8.12628L330.913 8.12628L330.913 16.3548C330.913 17.18 330.804 17.89 330.585 18.4847C330.367 19.0794 330.063 19.5709 329.675 19.9593C329.286 20.3476 328.813 20.6328 328.255 20.8149C327.697 20.9969 327.084 21.088 326.416 21.088C323.188 21.088 321.574 19.6134 321.574 16.6642L321.574 8.12628L324.068 8.12628L324.068 16.1727C324.068 16.6703 324.113 17.092 324.204 17.4379C324.295 17.7838 324.438 18.063 324.632 18.2753C324.826 18.4877 325.069 18.6394 325.36 18.7305C325.652 18.8215 325.991 18.867 326.38 18.867C327.144 18.867 327.697 18.6546 328.036 18.2298C328.376 17.8051 328.546 17.1194 328.546 16.1727L328.546 8.12628Z" fill="#006961"/>
<path d="M339.196 20.8695L339.196 15.6812C339.196 14.7346 339.059 14.0215 338.786 13.5421C338.513 13.0628 338.013 12.8231 337.284 12.8231C336.641 12.8231 336.11 12.996 335.691 13.3419C335.273 13.6878 334.978 14.1217 334.809 14.6435L334.809 20.8695L333.352 20.8695L333.352 11.7672L334.372 11.7672L334.645 12.8777L334.718 12.8777C335.009 12.4893 335.4 12.1707 335.892 11.9219C336.383 11.6731 336.969 11.5487 337.648 11.5487C338.146 11.5487 338.583 11.6064 338.959 11.7217C339.335 11.837 339.648 12.0403 339.897 12.3315C340.146 12.6228 340.334 13.0142 340.461 13.5057C340.588 13.9973 340.652 14.6193 340.652 15.3717L340.652 20.8695L339.196 20.8695Z"/>
<path d="M347.606 13.169C347.242 13.0476 346.896 12.9869 346.569 12.9869C346.047 12.9869 345.634 13.1295 345.331 13.4147C345.027 13.6999 344.839 14.061 344.766 14.4979L344.766 20.8695L343.31 20.8695L343.31 11.7672L344.33 11.7672L344.603 12.8777L344.675 12.8777C344.906 12.465 345.182 12.1465 345.504 11.9219C345.825 11.6974 346.235 11.5852 346.733 11.5852C347.084 11.5852 347.479 11.6458 347.916 11.7672L347.606 13.169Z"/>
<path d="M356.144 20.1413C355.78 20.4326 355.322 20.6632 354.77 20.8331C354.218 21.003 353.632 21.088 353.013 21.088C352.321 21.088 351.721 20.9757 351.211 20.7512C350.701 20.5266 350.282 20.205 349.955 19.7863C349.627 19.3676 349.384 18.867 349.227 18.2844C349.069 17.7019 348.99 17.0465 348.99 16.3184C348.99 14.7649 349.336 13.5816 350.028 12.7685C350.719 11.9553 351.708 11.5487 352.995 11.5487C353.408 11.5487 353.82 11.5943 354.233 11.6853C354.645 11.7763 355.016 11.9492 355.343 12.2041C355.671 12.459 355.938 12.82 356.144 13.2873C356.351 13.7545 356.454 14.3705 356.454 15.1351C356.454 15.5356 356.417 15.9785 356.345 16.464L350.501 16.464C350.501 16.998 350.556 17.4713 350.665 17.8839C350.774 18.2966 350.944 18.6455 351.174 18.9307C351.405 19.2159 351.705 19.4344 352.076 19.5861C352.446 19.7378 352.898 19.8136 353.432 19.8136C353.844 19.8136 354.257 19.7408 354.67 19.5952C355.082 19.4495 355.392 19.2796 355.598 19.0855L356.144 20.1413ZM353.013 12.8231C352.297 12.8231 351.724 13.0112 351.293 13.3874C350.862 13.7636 350.604 14.4069 350.519 15.3171L355.034 15.3171C355.034 14.3947 354.858 13.7485 354.506 13.3783C354.154 13.0081 353.656 12.8231 353.013 12.8231Z"/>
<path d="M360.368 18.6303C360.368 19.0551 360.441 19.3585 360.586 19.5406C360.732 19.7226 360.938 19.8136 361.205 19.8136C361.363 19.8136 361.533 19.8015 361.715 19.7772C361.897 19.753 362.103 19.6983 362.334 19.6134L362.498 20.7603C362.304 20.8574 362.034 20.9363 361.688 20.9969C361.342 21.0576 361.041 21.088 360.786 21.088C360.24 21.088 359.791 20.9332 359.439 20.6237C359.087 20.3143 358.911 19.7894 358.911 19.049L358.911 8.12628L360.368 8.12628L360.368 18.6303Z"/>
<path d="M364.373 11.7672L365.829 11.7672L365.829 20.8695L364.373 20.8695L364.373 11.7672ZM364.063 9.0001C364.063 8.72096 364.157 8.48127 364.345 8.28102C364.534 8.08077 364.773 7.98064 365.065 7.98064C365.356 7.98064 365.605 8.08077 365.811 8.28102C366.017 8.48127 366.12 8.72096 366.12 9.0001C366.12 9.27924 366.017 9.50983 365.811 9.69187C365.605 9.87392 365.356 9.96494 365.065 9.96494C364.773 9.96494 364.534 9.87392 364.345 9.69187C364.157 9.50983 364.063 9.27924 364.063 9.0001Z"/>
<path d="M368.797 12.4408C369.258 12.1616 369.795 11.9553 370.408 11.8218C371.021 11.6883 371.661 11.6216 372.328 11.6216C372.959 11.6216 373.466 11.7065 373.848 11.8764C374.231 12.0463 374.522 12.2678 374.722 12.5409C374.922 12.814 375.056 13.1143 375.123 13.442C375.189 13.7697 375.223 14.0974 375.223 14.4251C375.223 15.1533 375.205 15.8632 375.168 16.555C375.132 17.2468 375.114 17.9022 375.114 18.5211C375.114 18.9702 375.132 19.3949 375.168 19.7954C375.205 20.1959 375.271 20.5661 375.368 20.9059L374.294 20.9059L373.912 19.6316L373.821 19.6316C373.712 19.8015 373.575 19.9684 373.411 20.1322C373.248 20.2961 373.05 20.4417 372.82 20.5691C372.589 20.6966 372.322 20.8028 372.019 20.8877C371.715 20.9727 371.369 21.0151 370.981 21.0151C370.593 21.0151 370.232 20.9545 369.898 20.8331C369.564 20.7117 369.276 20.5388 369.033 20.3143C368.79 20.0897 368.599 19.8197 368.46 19.5042C368.32 19.1886 368.25 18.8306 368.25 18.4301C368.25 17.8961 368.36 17.4501 368.578 17.092C368.797 16.734 369.103 16.4488 369.497 16.2364C369.892 16.024 370.365 15.8723 370.917 15.7813C371.47 15.6903 372.079 15.6448 372.747 15.6448C372.917 15.6448 373.084 15.6448 373.248 15.6448C373.411 15.6448 373.578 15.6569 373.748 15.6812C373.785 15.3171 373.803 14.9894 373.803 14.6981C373.803 14.0306 373.669 13.5634 373.402 13.2964C373.135 13.0294 372.65 12.8959 371.946 12.8959C371.74 12.8959 371.518 12.9111 371.281 12.9414C371.045 12.9717 370.802 13.0142 370.553 13.0688C370.304 13.1234 370.068 13.1902 369.843 13.2691C369.619 13.348 369.422 13.436 369.252 13.533L368.797 12.4408ZM371.382 19.7408C371.721 19.7408 372.025 19.6953 372.292 19.6043C372.559 19.5133 372.789 19.398 372.984 19.2584C373.178 19.1188 373.339 18.9641 373.466 18.7942C373.593 18.6243 373.687 18.4604 373.748 18.3027L373.748 16.7917C373.578 16.7795 373.405 16.7704 373.229 16.7644C373.053 16.7583 372.88 16.7553 372.711 16.7553C372.334 16.7553 371.967 16.7765 371.609 16.819C371.251 16.8615 370.936 16.9403 370.662 17.0556C370.389 17.1709 370.171 17.3287 370.007 17.529C369.843 17.7292 369.761 17.981 369.761 18.2844C369.761 18.7092 369.913 19.0581 370.216 19.3312C370.52 19.6043 370.908 19.7408 371.382 19.7408Z"/>
<path d="M377.972 8.12628L379.428 8.12628L379.428 12.6592L379.501 12.6592C379.78 12.3073 380.135 12.0342 380.566 11.84C380.997 11.6458 381.467 11.5487 381.977 11.5487C383.154 11.5487 384.037 11.925 384.625 12.6774C385.214 13.4299 385.508 14.595 385.508 16.1727C385.508 17.7626 385.12 18.9702 384.343 19.7954C383.567 20.6207 382.474 21.0333 381.066 21.0333C380.387 21.0333 379.771 20.9605 379.219 20.8149C378.666 20.6693 378.251 20.5115 377.972 20.3416L377.972 8.12628ZM381.722 12.8231C381.115 12.8231 380.623 12.993 380.247 13.3328C379.871 13.6726 379.598 14.152 379.428 14.771L379.428 19.3585C379.659 19.492 379.938 19.5921 380.265 19.6589C380.593 19.7256 380.933 19.759 381.285 19.759C382.11 19.759 382.769 19.4677 383.26 18.8852C383.752 18.3027 383.997 17.3924 383.997 16.1545C383.997 15.6812 383.955 15.2382 383.87 14.8256C383.785 14.4129 383.651 14.061 383.469 13.7697C383.287 13.4784 383.054 13.2478 382.769 13.0779C382.483 12.908 382.134 12.8231 381.722 12.8231Z"/>
<path d="M389.422 18.6303C389.422 19.0551 389.495 19.3585 389.641 19.5406C389.786 19.7226 389.993 19.8136 390.26 19.8136C390.418 19.8136 390.587 19.8015 390.769 19.7772C390.952 19.753 391.158 19.6983 391.388 19.6134L391.552 20.7603C391.358 20.8574 391.088 20.9363 390.742 20.9969C390.396 21.0576 390.096 21.088 389.841 21.088C389.295 21.088 388.846 20.9332 388.494 20.6237C388.142 20.3143 387.966 19.7894 387.966 19.049L387.966 8.12628L389.422 8.12628L389.422 18.6303Z"/>
<path d="M399.763 20.1413C399.398 20.4326 398.94 20.6632 398.388 20.8331C397.836 21.003 397.25 21.088 396.631 21.088C395.94 21.088 395.339 20.9757 394.829 20.7512C394.319 20.5266 393.901 20.205 393.573 19.7863C393.245 19.3676 393.003 18.867 392.845 18.2844C392.687 17.7019 392.608 17.0465 392.608 16.3184C392.608 14.7649 392.954 13.5816 393.646 12.7685C394.338 11.9553 395.327 11.5487 396.613 11.5487C397.026 11.5487 397.438 11.5943 397.851 11.6853C398.264 11.7763 398.634 11.9492 398.962 12.2041C399.289 12.459 399.556 12.82 399.763 13.2873C399.969 13.7545 400.072 14.3705 400.072 15.1351C400.072 15.5356 400.036 15.9785 399.963 16.464L394.119 16.464C394.119 16.998 394.174 17.4713 394.283 17.8839C394.392 18.2966 394.562 18.6455 394.793 18.9307C395.023 19.2159 395.324 19.4344 395.694 19.5861C396.064 19.7378 396.516 19.8136 397.05 19.8136C397.463 19.8136 397.875 19.7408 398.288 19.5952C398.701 19.4495 399.01 19.2796 399.216 19.0855L399.763 20.1413ZM396.631 12.8231C395.915 12.8231 395.342 13.0112 394.911 13.3874C394.48 13.7636 394.222 14.4069 394.137 15.3171L398.652 15.3171C398.652 14.3947 398.476 13.7485 398.124 13.3783C397.772 13.0081 397.275 12.8231 396.631 12.8231Z"/>
<path d="M413.07 20.8695L413.07 15.6812C413.07 14.7346 412.934 14.0215 412.661 13.5421C412.387 13.0628 411.887 12.8231 411.159 12.8231C410.515 12.8231 409.984 12.996 409.566 13.3419C409.147 13.6878 408.853 14.1217 408.683 14.6435L408.683 20.8695L407.226 20.8695L407.226 11.7672L408.246 11.7672L408.519 12.8777L408.592 12.8777C408.883 12.4893 409.274 12.1707 409.766 11.9219C410.258 11.6731 410.843 11.5487 411.523 11.5487C412.02 11.5487 412.457 11.6064 412.833 11.7217C413.21 11.837 413.522 12.0403 413.771 12.3315C414.02 12.6228 414.208 13.0142 414.335 13.5057C414.463 13.9973 414.526 14.6193 414.526 15.3717L414.526 20.8695L413.07 20.8695Z"/>
<path d="M416.875 8.12628L424.43 8.12628L424.43 10.3472L419.369 10.3472L419.369 13.3146L423.975 13.3146L423.975 15.5356L419.369 15.5356L419.369 18.6485L424.521 18.6485L424.521 20.8695L416.875 20.8695L416.875 8.12628Z" fill="#006961"/>
<path d="M425.486 11.7672L426.906 11.7672L426.906 9.96494L428.362 9.54624L428.362 11.7672L430.838 11.7672L430.838 13.0415L428.362 13.0415L428.362 18.0842C428.362 18.7153 428.441 19.1613 428.599 19.4222C428.756 19.6832 429.023 19.8136 429.4 19.8136C429.715 19.8136 429.982 19.7803 430.201 19.7135C430.419 19.6468 430.662 19.5588 430.929 19.4495L431.257 20.56C430.929 20.7178 430.571 20.8452 430.182 20.9423C429.794 21.0394 429.375 21.088 428.926 21.088C428.186 21.088 427.664 20.8786 427.361 20.4599C427.057 20.0412 426.906 19.3403 426.906 18.3573L426.906 13.0415L425.486 13.0415L425.486 11.7672Z"/>
<path d="M438.757 11.7672L440.85 17.0829L441.305 18.8306L441.342 18.8306L441.688 17.0465L443.308 11.7672L444.692 11.7672L441.633 21.0698L440.923 21.0698L438.538 15.0622L438.192 13.5695L438.138 13.5695L437.774 15.0804L435.48 21.0698L434.77 21.0698L431.602 11.7672L433.186 11.7672L434.988 17.0647L435.298 18.8306L435.316 18.8306L435.753 17.0283L437.701 11.7672L438.757 11.7672Z"/>
<path d="M445.529 16.3184C445.529 14.777 445.872 13.5968 446.557 12.7776C447.243 11.9583 448.229 11.5487 449.516 11.5487C450.195 11.5487 450.787 11.661 451.291 11.8855C451.794 12.1101 452.21 12.4317 452.538 12.8504C452.865 13.2691 453.108 13.7727 453.266 14.3614C453.424 14.95 453.503 15.6023 453.503 16.3184C453.503 17.8597 453.16 19.0399 452.474 19.8591C451.788 20.6784 450.802 21.088 449.516 21.088C448.836 21.088 448.244 20.9757 447.741 20.7512C447.237 20.5266 446.821 20.205 446.494 19.7863C446.166 19.3676 445.923 18.864 445.766 18.2753C445.608 17.6867 445.529 17.0344 445.529 16.3184ZM447.04 16.3184C447.04 16.7795 447.085 17.2225 447.176 17.6473C447.267 18.0721 447.41 18.4422 447.604 18.7578C447.798 19.0733 448.053 19.3282 448.369 19.5224C448.684 19.7165 449.067 19.8136 449.516 19.8136C451.166 19.8258 451.992 18.6607 451.992 16.3184C451.992 15.845 451.946 15.396 451.855 14.9712C451.764 14.5464 451.621 14.1763 451.427 13.8607C451.233 13.5452 450.978 13.2934 450.663 13.1052C450.347 12.9171 449.965 12.8231 449.516 12.8231C447.865 12.8109 447.04 13.976 447.04 16.3184Z"/>
<path d="M460.093 13.169C459.729 13.0476 459.383 12.9869 459.055 12.9869C458.533 12.9869 458.12 13.1295 457.817 13.4147C457.514 13.6999 457.326 14.061 457.253 14.4979L457.253 20.8695L455.796 20.8695L455.796 11.7672L456.816 11.7672L457.089 12.8777L457.162 12.8777C457.392 12.465 457.668 12.1465 457.99 11.9219C458.312 11.6974 458.721 11.5852 459.219 11.5852C459.571 11.5852 459.965 11.6458 460.402 11.7672L460.093 13.169Z"/>
<path d="M464.28 16.7735L463.442 16.7735L463.442 20.8695L461.986 20.8695L461.986 8.12628L463.442 8.12628L463.442 15.8814L464.189 15.6266L467.01 11.7672L468.703 11.7672L465.918 15.4263L465.172 16.0271L466.082 16.7553L469.122 20.8695L467.32 20.8695L464.28 16.7735Z"/>
<path d="M474.711 18.3937C474.711 18.0296 474.602 17.7444 474.383 17.5381C474.165 17.3317 473.895 17.1588 473.573 17.0192C473.252 16.8797 472.9 16.7462 472.517 16.6187C472.135 16.4913 471.783 16.3275 471.461 16.1272C471.14 15.927 470.87 15.6691 470.651 15.3535C470.433 15.038 470.324 14.6132 470.324 14.0792C470.324 13.2054 470.572 12.5652 471.07 12.1586C471.568 11.752 472.259 11.5487 473.145 11.5487C473.801 11.5487 474.35 11.6064 474.793 11.7217C475.236 11.837 475.621 11.9735 475.949 12.1313L475.603 13.3328C475.324 13.1993 474.987 13.081 474.593 12.9778C474.198 12.8746 473.776 12.8231 473.327 12.8231C472.793 12.8231 472.402 12.9141 472.153 13.0961C471.904 13.2782 471.78 13.5937 471.78 14.0428C471.78 14.3583 471.889 14.6041 472.108 14.7801C472.326 14.956 472.596 15.1138 472.918 15.2534C473.239 15.393 473.591 15.5295 473.974 15.663C474.356 15.7965 474.708 15.9725 475.029 16.1909C475.351 16.4094 475.621 16.6855 475.84 17.0192C476.058 17.353 476.167 17.7929 476.167 18.3391C476.167 18.7274 476.104 19.0915 475.976 19.4313C475.849 19.7712 475.651 20.0624 475.384 20.3052C475.117 20.5479 474.787 20.739 474.392 20.8786C473.998 21.0182 473.534 21.088 473 21.088C472.308 21.088 471.719 21.0212 471.234 20.8877C470.748 20.7542 470.342 20.5964 470.014 20.4144L470.451 19.1765C470.73 19.3342 471.094 19.4799 471.543 19.6134C471.992 19.7469 472.447 19.8136 472.909 19.8136C473.431 19.8136 473.861 19.7105 474.201 19.5042C474.541 19.2978 474.711 18.9277 474.711 18.3937Z"/>
</g>
</g>
</g>
</svg>
